<svg width="290pt" height="158pt" viewBox="0.00 0.00 290.00 158.00" xmlns="http://www.w3.org/2000/svg" xmlns:xlink="http://www.w3.org/1999/xlink">
<g id="graph0" class="graph" transform="scale(1 1) rotate(0) translate(4 153.6)">
<title>dependencies</title>
<polygon fill="white" stroke="none" points="-4,4 -4,-153.6 286.15,-153.6 286.15,4 -4,4"/>
<text xml:space="preserve" text-anchor="middle" x="141.08" y="-25" font-family="Times,serif" font-size="14.00">Python App Dependencies</text>
<text xml:space="preserve" text-anchor="middle" x="141.08" y="-8.2" font-family="Times,serif" font-size="14.00">From requirements.txt</text>
<!-- setuptools==44.1.1 -->
<g id="node1" class="node">
<title>setuptools==44.1.1</title>
<polygon fill="lightgreen" stroke="black" points="123.57,-149.6 0,-149.6 0,-113.6 123.57,-113.6 123.57,-149.6"/>
<text xml:space="preserve" text-anchor="middle" x="61.79" y="-127.4" font-family="Times,serif" font-size="14.00">setuptools==44.1.1</text>
</g>
<!-- Flask==0.5 -->
<g id="node2" class="node">
<title>Flask==0.5</title>
<polygon fill="orange" stroke="black" points="221.6,-149.6 141.97,-149.6 141.97,-113.6 221.6,-113.6 221.6,-149.6"/>
<text xml:space="preserve" text-anchor="middle" x="181.79" y="-127.4" font-family="Times,serif" font-size="14.00">Flask==0.5</text>
</g>
<!-- Werkzeug==0.6.1 -->
<g id="node3" class="node">
<title>Werkzeug==0.6.1</title>
<polygon fill="lightcoral" stroke="black" points="181.44,-77.6 64.13,-77.6 64.13,-41.6 181.44,-41.6 181.44,-77.6"/>
<text xml:space="preserve" text-anchor="middle" x="122.79" y="-55.4" font-family="Times,serif" font-size="14.00">Werkzeug==0.6.1</text>
</g>
<!-- Flask==0.5&#45;&gt;Werkzeug==0.6.1 -->
<g id="edge1" class="edge">
<title>Flask==0.5-&gt;Werkzeug==0.6.1</title>
<path fill="none" stroke="black" d="M167.2,-113.3C160.34,-105.16 152.02,-95.29 144.45,-86.3"/>
<polygon fill="black" stroke="black" points="147.3,-84.25 138.18,-78.86 141.95,-88.76 147.3,-84.25"/>
</g>
<!-- Jinja2==2.4 -->
<g id="node4" class="node">
<title>Jinja2==2.4</title>
<polygon fill="lightyellow" stroke="black" points="282.15,-77.6 199.42,-77.6 199.42,-41.6 282.15,-41.6 282.15,-77.6"/>
<text xml:space="preserve" text-anchor="middle" x="240.79" y="-55.4" font-family="Times,serif" font-size="14.00">Jinja2==2.4</text>
</g>
<!-- Flask==0.5&#45;&gt;Jinja2==2.4 -->
<g id="edge2" class="edge">
<title>Flask==0.5-&gt;Jinja2==2.4</title>
<path fill="none" stroke="black" d="M196.37,-113.3C203.23,-105.16 211.55,-95.29 219.12,-86.3"/>
<polygon fill="black" stroke="black" points="221.62,-88.76 225.39,-78.86 216.27,-84.25 221.62,-88.76"/>
</g>
</g>
</svg>